{"title":"Bad Teacher {2011} Unrated - Kickassddl","uid":7824344,"size":733279171,"categoryP":"video","categoryS":"movies","magnet":"?xt=urn:btih:4409de2046b9618d226cc6928bf06e70755cb00e&amp;dn=Bad+Teacher+%7B2011%7D+Unrated+-+Kickassddl&amp;tr=udp%3A%2F%2Ftracker.openbittorrent.com%3A80&amp;tr=udp%3A%2F%2Fopen.demonii.com%3A1337&amp;tr=udp%3A%2F%2Ftracker.coppersurfer.tk%3A6969&amp;tr=udp%3A%2F%2Fexodus.desync.com%3A6969","seeders":1,"leechers":0,"uploader":"NepsterJay","files":3,"time":1352854692,"description":"Bad Teacher {2011} Unrated 720p BRRip x264 - Kickassddl\n\nENCODED by Mr. KickASS\n\n\nVideo\nFormat profile: &lt;a class=&quot;__cf_email__&quot; href=&quot;/cdn-cgi/l/email-protection&quot; data-cfemail=&quot;bef6d7d9d6fef28a908f&quot;&gt;[email&amp;#160;protected]&lt;/a&gt;&lt;script cf-hash='f9e31' type=&quot;text/javascript&quot;&gt;\n/* &lt;![CDATA[ */!function(){try{var t=&quot;currentScript&quot;in document?document.currentScript:function(){for(var t=document.getElementsByTagName(&quot;script&quot;),e=t.length;e--;)if(t[e].getAttribute(&quot;cf-hash&quot;))return t[e]}();if(t&amp;&amp;t.previousSibling){var e,r,n,i,c=t.previousSibling,a=c.getAttribute(&quot;data-cfemail&quot;);if(a){for(e=&quot;&quot;,r=parseInt(a.substr(0,2),16),n=2;a.length-n;n+=2)i=parseInt(a.substr(n,2),16)^r,e+=String.fromCharCode(i);e=document.createTextNode(e),c.parentNode.replaceChild(e,c)}}}catch(u){}}();/* ]]&gt; */&lt;/script&gt;\nDuration: 1h 37mn\nBit rate: 870 Kbps\nMaximum bit rate: 7 794 Kbps\nWidth: 1 280 pixels\nHeight: 696 pixels\nStream size: 606 MiB \n\n\nAudio\nFormat: AAC\nFormat/Info: Advanced Audio Codec\nFormat profile: LC\nBit rate: 128 Kbps\nMaximum bit rate: 134 Kbps\nChannel(s): 2 channels\nChannel positions: Front: L R\nSampling rate: 48.0 KHz\nCompression mode: Lossy\nStream size: 89.4 MiB","torrent":{"xt":"urn:btih:4409de2046b9618d226cc6928bf06e70755cb00e","amp;dn":"Bad+Teacher+%7B2011%7D+Unrated+-+Kickassddl","amp;tr":["udp%3A%2F%2Ftracker.openbittorrent.com%3A80","udp%3A%2F%2Fopen.demonii.com%3A1337","udp%3A%2F%2Ftracker.coppersurfer.tk%3A6969","udp%3A%2F%2Fexodus.desync.com%3A6969"],"infoHash":"4409de2046b9618d226cc6928bf06e70755cb00e","infoHashBuffer":{"type":"Buffer","data":[68,9,222,32,70,185,97,141,34,108,198,146,139,240,110,112,117,92,176,14]},"announce":[],"urlList":[]}}